# xmcd
#
# Track frame offsets:
#	150
#	13766
#	28547
#	36871
#	47111
#	57005
#	68302
#	80405
#	90929
#	104027
#	113643
#	125448
#	135045
#	146949
#	160051
#	171978
#	182585
#	194102
#	209595
#	219952
#	229790
#	242160
#	252138
#	271147
#	281589
#	291571
#	303430
#	318048
#	329665
#	339777
#	350557
#	362310
#
# Disc length: 4993 seconds
#
# Revision: 0
# Processed by: cddbd v1.5.2PL0 Copyright (c) Steve Scherf et al.
# Submitted via: audiograbber 1.83.01
#
DISCID=d3137f20
DTITLE=Chuck Berry - Rock And Roll Music - Any Old Way You Choose It [CD 05) - 
DTITLE=Studio 1964-1965
DYEAR=2014
DGENRE=Rock and Roll
TTITLE0=Lonely School Days [mono 1965]
TTITLE1=His Daughter Caroline [mono 1965]
TTITLE2=Dear Dad [mono 1965]
TTITLE3=I Want To Be Your Driver [1965]
TTITLE4=Spending Christmas (My Blue Christmas) [2009]
TTITLE5=The Song Of My Love [1965]
TTITLE6=Butterscotch [instrumental] [1965]
TTITLE7=After It's Over [instrumental] [1965]
TTITLE8=Why Should We End This Way [1965]
TTITLE9=You Came A Long Way From St. Louis [1965]
TTITLE10=She Once Was Mine [1965]
TTITLE11=Jamaica Farewell [1965]
TTITLE12=My Little Love Light [1965]
TTITLE13=I Got A Booking [1965]
TTITLE14=St. Louis Blues [1965]
TTITLE15=Shake Rattle And Roll [2009]
TTITLE16=Honey Hush [2009]
TTITLE17=Wee Wee Hours [instrumental] [2009]
TTITLE18=Run Joe [1966]
TTITLE19=It's My Own Business [1966]
TTITLE20=One For My Baby (And One More For The Road) [1966]
TTITLE21=Every Day We Rock And Roll [1966]
TTITLE22=My Mustang Ford [instrumental] [2009]
TTITLE23=My Mustang Ford [1966]
TTITLE24=Merrily We Rock And Roll [1966]
TTITLE25=Vaya Con Dios [1966]
TTITLE26=Wee Hour Blues [1966]
TTITLE27=It Wasn't Me [1965]
TTITLE28=Ain't That Just Like A Woman [1966]
TTITLE29=Right Off Rampart Street [1966]
TTITLE30=Welcome Back Pretty Baby [1965]
TTITLE31=Sad Day, Long Night [instrumental] [1965]
EXTD=
EXTT0=
EXTT1=
EXTT2=
EXTT3=
EXTT4=
EXTT5=
EXTT6=
EXTT7=
EXTT8=
EXTT9=
EXTT10=
EXTT11=
EXTT12=
EXTT13=
EXTT14=
EXTT15=
EXTT16=
EXTT17=
EXTT18=
EXTT19=
EXTT20=
EXTT21=
EXTT22=
EXTT23=
EXTT24=
EXTT25=
EXTT26=
EXTT27=
EXTT28=
EXTT29=
EXTT30=
EXTT31=
PLAYORDER=
